<?xml version="1.0" encoding="utf-8"?>
<!-- Generator: Adobe Illustrator 18.0.0, SVG Export Plug-In . SVG Version: 6.00 Build 0)  -->
<!DOCTYPE svg PUBLIC "-//W3C//DTD SVG 1.1//EN" "http://www.w3.org/Graphics/SVG/1.1/DTD/svg11.dtd">
<svg version="1.1" id="Layer_1" xmlns="http://www.w3.org/2000/svg" xmlns:xlink="http://www.w3.org/1999/xlink" x="0px" y="0px"
	 viewBox="0 0 640 480" enable-background="new 0 0 640 480" xml:space="preserve">
<title>Space Station Art</title>
<g>
	<title>Layer 1</title>
	<g transform="rotate(78.70008850097656 333.22949218750006,238.48901367187494) ">
		<path fill="#FFFFFF" d="M235.8-88c0.6,0,1.1,0,1.7,0c29.8,25.5,61.6,52.5,92.2,78.5c7.5,6.4,15.1,13.1,22.8,19.7
			c2.3,2,7.2,4.7,7.4,7c0.2,1.9-1.5,4.6-2.4,6.5c-1.1,2.4-2.3,4.3-2.9,6.2c2.2,2.2,5,4.4,6.7,7c0.2,0.3,0.8,0.2,1,0.5
			c0.6,0.9,1.4,2.4,1.7,3.4c0.4,1.6-0.5,4.8,1.2,6c0.8-0.1,0.9-1.3,1.2-1.9c1.2-2.7,2.2-5.3,3.4-8.2c0.9-2.3,2.8-9.4,5.3-9.8
			c1.7-0.3,4.3,2.8,5.8,4.1c5.8,5,11.2,9.8,16.8,14.2c2.7-1.8,6.9-0.2,10.1,0.2c2.9-0.8,7-4.1,9.4-1.2c-0.5,5.6-3.1,9.1-4.1,14.2
			C457.3,97.8,504,137.2,549.2,177c2.6,0.6,5.9,1.7,6.5,3.8c0.8,2.9-2.3,5.8-3.6,7.9c-4.5,7.3-9.3,14.8-13.4,21.4
			c-6.5,10.2-11.9,20.1-18.2,28.3c-2,0.1-3.3,1.5-5,0.7c-1-0.5-1.7-2.9-2.4-3.8c-4.3-5.4-10.6-10.1-15.8-15.4
			c-36.3-36.3-74.5-73.7-109.9-109.4c-2,0.4-3.3,1.3-5.3,1.7c2.1,2.9,4.7,5.6,7.2,8.2c18.8,18.8,37.2,37.9,55.9,56.6
			c21.5,21.5,42.5,43.5,63.6,65c2,0,5.7,2.2,6,4.3c0.3,2.1-2.4,5.6-3.6,7.7c-7.3,12.3-14.1,23.3-21.4,35c-1.8,2.9-6,12.3-9.1,13.7
			c-0.9,0.4-2.8,0.9-3.6,0.7c-1.8-0.4-1.8-2.8-2.9-4.3c-1.5-2.2-3.9-4.1-5.8-6.2c-25.7-30.4-52.2-61.1-78.2-90.7
			c-1.8-2-3.4-5.5-6.7-5.5c-0.6,1.9-1.1,4-3.6,4.3c-2.1,0.3-4.1-0.4-4.6-2.6c-4.9,10-9.9,19.9-14.9,29.8c4.9,0.2,10.2-1.2,14.2,0
			c3.9,1.1,7.6,6.9,8.9,12.5c2.2,9.6-1.4,20-8.2,22.1c-4.9,1.5-8.7,0-15.6,0.7c-1.1,4.5-4.1,7.8-8.9,7.4c-3.1-0.2-4.6-2.5-6-4.1
			c-0.2-0.3-0.4-1.1-1-0.7c0.5,0.9,0.1,2.6,0.2,3.8c-2.7,5.2-4.9,9.5-7.4,14.6c-2,4.2-4.3,11.6-8.2,13.9c-8.7,5.3-24.2-3.1-27.8-9.8
			c-1.2-2.2-2.3-6.3-1.9-9.1c0.5-3.5,3.8-8.4,5.3-11.3c0.5-1,1.6-2.2,1.2-3.4c-7.9,0.5-15.6,1.2-23.3,1.9c-4.3,11-8.9,23.1-13,34.1
			c-0.6,1.5-1.6,3.2-1.2,4.8c2.2,1.6,5.2-1.1,8.2-1.2c1.8-0.1,3.9,1,6,1c2.3-0.1,4.6-1.6,7-1.7c2.2-0.1,4.2,1.4,6.2,1.2
			c2-0.2,4.5-2.3,7.4-2.4c2.2-0.1,4.7,1.1,7,1c2.5-0.2,6.5-3.5,8.6-1.7c1.8,1.6-0.7,5.7-1.2,7.2c-1.1,2.9-1.7,5.1-2.9,7.2
			c-3,0.3-4.6,2.5-7.9,2.6c-2.3,0.1-4.6-1.4-7-1.2c-2.5,0.2-4.9,2.6-7.4,2.6c-2.2,0.1-4.3-1.6-6.5-1.4c-2.4,0.1-4.3,2.1-6.7,2.2
			c-3.3,0.1-6.1-2.3-9.1-0.2c7.3,10.3,15.8,21.6,24.2,31.7c1.9-0.5,3.9-1.9,6.2-1.2c2.1,2.4-0.6,5.5-1.2,8.2
			c25.1,33.5,50.7,66.4,75.8,99.8c2.2,0.8,4.5,2.3,4.6,4.6c0.1,1.5-2.1,4-3.4,6c-7.4,11.8-14.6,22.5-22.1,34.1
			c-2.1,3.2-3.2,6.5-7.7,6c-1.7-0.8-1.6-2.9-2.4-4.3c-3.2-5.8-7.7-11.1-11.5-16.8c-26.6-39.7-52.6-79.8-79.4-118.8
			c-1,0.4-2.2,0.7-3.4,1c1.2,3.1,3.2,6,5,8.9c26.6,41.4,54,82.9,80.9,124.1c2,3,3.4,6.7,5.5,9.1c1.5,1.8,4.7,2.8,4.6,5.8
			c-0.1,1.2-2.2,3.9-3.4,5.8c-6.1,9.9-11.4,18.4-17.5,28.3c-1.5,2.4-5,10-7.7,10.8c-4.5,1.4-4.1-1.6-5.3-4.3
			c-1.4-3.1-3.7-6.2-5.5-9.4c-5.5-9.6-10.9-19.7-16.3-29c-20.2-35-40.1-70.5-60-105.8c-1.5-2.7-5.2-8-5.3-9.8c0-0.9,1.1-3,1.7-4.3
			c1.9-4.5,4-8.9,5.5-13c-0.7-1-1.5-1.8-1.9-3.1c-1.4,0.2-3.5,0.9-5,0.2c-2.5-1.3-1-6.7-3.6-7.9c-1.4,3.4-2.3,7.3-5,9.4
			c-2.5-1.7-3.7-4.6-5.3-7.2c-22.1-37.1-43.7-74.6-65.8-111.8c-1.5-2.5-4.2-6.5-4.3-8.4c-0.1-1.9,1.1-4.3,1.7-6.5
			c0.5-1.8,1.7-5.4,1.7-6.7c0-1.4-0.9-2.7-0.7-3.8c0.2-1.5,1.7-2.3,2.4-3.8c1.1-2.3,0.8-4.3,1.7-6.2c-0.7,0.4-2,0.7-2.9,0.2
			c-1.5-2.9-7.6-5.2-8.2-8.6c-0.3-1.7,1-4.8,1.7-7c1.9-6.7,4.8-14.6,5.8-20.4c-1.3,4.3-2.7,8.1-4.3,12.7c-0.8,2.3-2.7,11.4-5.3,11.8
			c-2.4,0.3-3.7-2.9-5-4.3c-1.4-1.6-4.1-3.1-4.3-5.3c-0.1-1.4,1.3-4,1.9-6c2-6,4.5-12.2,6.2-17.5c0-0.3-0.3-0.2-0.2,0.2
			c-1.5,3.2-2.7,6.6-4.3,10.6c-0.8,1.9-2.9,9.5-5.8,9.4c-1.8-0.1-3.1-3.7-3.8-5.3c-1.2-2.5-1.9-4.2-2.9-6.2c0.5-1.5,1.7-3.6,1.7-4.8
			c-0.6,0.8-2,0.8-3.1,0.5c-2.2-3.7-2.7-8.9-4.3-13.2c7.5-16.1,14.7-32.3,22.3-48.2c-0.7-2.3-2-3.6-1.2-5.8c0.7-1.9,4.4-3.5,6.7-2.9
			c0.9,0.2,2.2,2.2,3.1,3.4c2.8,3.6,6.1,8.3,8.6,10.8c0.8-1,1.2-2.5,2.2-3.4c-3.6-5.5-8.1-10.1-12-15.4c0-2.5-3.5-7.2-3.1-9.8
			c0.3-2,3.2-3.9,4.1-6c1.8-4.1,2.8-9.8,4.3-15.4c3.6-13.3,6.7-25.6,10.3-38.9c0.6-2.3,1-6.3,3.4-6.5c2.1-0.1,3.7,2.4,4.8,3.4
			c1.9,1.6,3.4,2.9,4.6,3.8c0.4,0.5,0.2,1.6,0.2,2.4c3.4-1.4,5.5,2.4,7.7,4.8c2.4,2.7,5.2,5,3.8,8.4c3.1-0.8,3.3,3.7,4.8,2.9
			c0.2-10,15.9-16.4,22.6-8.9c1.8-1.9,3.7-3.3,5.8-5.5c1.4-1.5,3.5-5.5,6.2-5c1.7,0.3,2.7,2.9,3.4,3.8c0.9,1.2,2.8,2.8,2.6,4.6
			c-0.2,2.3-4.5,5.1-6.5,7c-2.5,2.4-5.1,4.5-6.7,6.7c1.5,1.9,3.1,3.6,3.1,7c3.5,1.1,5.6,2.9,7.2,5.5c0.6,0.9,0.6,2.9,2.6,2.2
			c0-0.6-1.3-3-0.2-4.3c2-2.4,10.7-0.5,13.9-1.9c1.7-3.9,2.9-7.4,4.6-12c0.9-2.5,3-10.7,5.8-10.8c1.6,0,3.6,3.1,4.8,4.6
			c3.1,3.9,5.6,6.8,8.6,10.6c1.2,1.5,3.1,4.7,4.6,5c1.9,0.5,3.4-0.9,4.8-0.2c2,2.1,3.4,4.8,4.8,7.4c2.2,1.8,5.2,2.7,7.2,4.8
			c1.9,2,3,5.3,5,7.7c3.1,3.6,8.2,5.9,10.8,9.6c2.3,3.3,3.2,7.4,5.8,10.6c1.7-3.7,1.3-9.5,7.2-8.9c-30.5-33.6-61.5-70.5-92.6-104.4
			c-2-2.2-5.6-5.6-5.8-7.4c-0.1-1.9,1.4-4.9,1.9-7.2c0.7-2.8,1.2-5.2,1.7-7.4c-1.4-1.8-0.7-6.8,1.9-7.4c1.9-2.7,1.5-15.5,5.8-15.4
			c1.8,0,5.4,4.4,7.2,6.2c32.7,32.7,65.4,64.9,97.7,97.2c1.1,1.1,2,2.8,3.1,2.6c0.8-1.3,1.1-3.1,1.7-4.6
			C302.7,25,265.3-9.3,231.7-42.9c-2.2-2.2-6.4-5.2-6.7-7c-0.3-1.6,1-4.8,1.7-7.2c0.6-2.2,1.8-4.9,1.9-7c0.1-1.5-0.8-2.7-0.5-4.3
			c0.3-1.4,1.7-2.2,2.4-3.1C232-75.6,232.8-85.3,235.8-88z M233.6-68.3c18.9,17.3,38.2,34.6,57.6,51.8c18.6,16.6,37,34.3,55.7,50.4
			c0.4,0.3,0.9,1.3,1.7,1c-0.4-1.3-1.7-1.8-2.2-3.1c1.7-1.3,3.7-3.3,5.3-4.1c1.8-2.9,3-6.5,4.6-9.6c-39.7-33.7-79.3-67.5-119-101.3
			C236.2-78,234.6-73.5,233.6-68.3z M238.4-59.7c2.6,2.4,5.1,4.6,7.2,6.5c31.4,28.5,62.3,56.6,93.6,84.5c2.4,2.1,4.4,5.7,8.2,5.8
			C310,2.8,269.9-33.3,231.4-67.4C231.7-64.7,236-61.9,238.4-59.7z M228.8-50.3c36.1,35.4,72.3,70.7,109,105.6
			c1.8-5.8,3.9-11.3,6-16.8C307,4.3,269.4-29.1,232.2-62.8C230.9-58.8,230-54.4,228.8-50.3z M222.8-24.9
			C257.4,12,291.9,49.1,327,85.5c1.7-6,4.1-11.5,6-17.3c-35.3-36-71.2-71.3-107-106.8C225.2-33.6,223.7-29.6,222.8-24.9z
			 M323.1,84.6c-33.6-36.7-68.5-72.4-102.2-108.7c0-0.3-0.3-0.2-0.2,0.2c0,0.1,0,0.3-0.2,0.2c8,10,17.3,18.8,26.2,28.3
			c22,23.6,43.8,47.7,66.2,70.6c3.8,3.9,7.7,8.6,11.5,12.2c0,0,0.8,2.2,1.4,0.7C326,86.4,324.1,85.6,323.1,84.6z M219.7-12.4
			c-0.5,2.1-1.7,4.8-1.4,6.2c0.2,1.4,4.3,5.3,6,7.2c6.7,7.5,12.9,14.4,19,21.4c25,28.6,51.1,57.6,75.6,85c2.1-5.3,4-10.9,6-16.3
			C290.6,54,256,17.4,221.4-19.1C220.9-17.3,220.3-15.1,219.7-12.4z M357.9,37.8c-2.8-1.8-4.8-4.4-7.2-6.5c-0.1,0.5-0.6,0.5-1,0.7
			c1.1,3.2,4.3,2.7,3.6,7.2c-1.6,0.6-4.5-0.1-6,0.5c1.1,1.7,2.8,2.8,3.8,4.6c3.3-0.1,7.1,0.2,9.6-0.7c-0.1-2.6-1.6-3.6-3.1-4.8
			C357.8,38.2,358.4,38.2,357.9,37.8z M375.9,31.5c-2.6,6.6-5.4,12.9-7.9,19.4c54.8,51.7,110.1,102.8,165.6,153.8
			c4.7-7.9,9.7-15.5,14.6-23.3C491.2,131.1,433.4,81.5,375.9,31.5z M323.6,101.1c-0.9,2.6-3,7.2-2.9,8.9c0.2,2.2,2.8,3.7,3.6,5.8
			c8.7-23.3,17.2-46.8,25.7-70.3c-1.5-1.7-2.8-3.6-4.6-5C339.1,59.3,330.6,81.5,323.6,101.1z M155.4,61
			c-3.3,12.5-6.7,25.3-10.1,37.9c-1.5,5.6-2.9,9,1,12.2c6.3-20.2,12.6-40.5,18.7-61c-1.7-1.7-3.6-3.3-5.5-4.8
			C158.5,50.6,156.8,55.5,155.4,61z M351.9,46.2c-8.9,23.3-17.3,47-25.9,70.6c2.9,0.1,5.3-0.3,7.9-0.5c0.2-2.9,3.2-5.5,2.9-7.9
			c-0.3-2-2.9-2.1-3.4-4.3c0.5-2.2,0.7-4.2,2.6-4.3c1.7-0.1,2.4,2.1,3.4,1.7c6.4-16.6,12.7-33.3,19-50.2c-1.7-0.9-2.8-2.9-1.7-5.3
			C355.1,45.9,353.2,45.8,351.9,46.2z M363.2,53.1c5.7,5.4,11.2,10.5,16.3,15.4c21.9,20.8,43.9,40.7,65.3,61
			c14.5,13.8,29.3,27.1,43.9,40.3c14.9,13.5,28.7,27.8,43.7,40.6c0.3-0.9,1.2-1.2,1.4-2.2c-1.2-2-3.1-3.5-4.8-5
			c-12.9-11.9-25.5-23.9-38.4-35.5C476,154.4,461.4,140.9,447,127c-14-13.5-29.1-26.6-43.7-40.6c-6.9-6.7-14.8-12.9-22.1-20.2
			c-3.2-3.2-6.8-6.8-10.8-10.3c-3.6-3.2-8.6-8.1-11.5-9.8C356.1,48.5,361,51,363.2,53.1z M413.4,47.4c-1.8-0.2-3.9,1.4-6,1.7
			c-0.4,1.9-0.9,3.8-1.4,5.5c1.5,0.7,2,2.3,3.8,2.6C411.3,54.3,412.2,50.7,413.4,47.4z M399,48.6c2.1,1.5,4,3.4,6,5
			c0.4-1.6,0.9-3.1,1.2-4.8C403.7,48.5,400.8,46.8,399,48.6z M208.6,61.5c-0.9,0.9-3.4,2-1.9,3.6c3.6-2.8,7.2-7,10.6-10.1
			c1.1-1,3.6-2.1,1.7-3.8C215.3,53.9,211.9,58.3,208.6,61.5z M357.7,60.3c1.2,0.3,1.9,1.1,3.4,1.2c0.7-2,1.7-3.6,2.2-5.8
			c-1-0.8-1.9-1.8-2.9-2.6C359.3,55.3,358.4,57.8,357.7,60.3z M210.8,63.2c-1.6,1.6-4.3,3-2.2,4.3c4.8-3.6,8.8-8.1,13.2-12.2
			c-0.6-0.4-0.7-1.2-1.2-1.7C218.1,56,213.9,60.2,210.8,63.2z M151,117.4c1.4,1.8,2.9,4.6,4.6,5.3c7-20.3,14.1-40.5,21.1-60.7
			c-1.8-2.5-3.9-4.7-6-7C164.2,75.9,157.4,96.5,151,117.4z M365.1,57.7c-2.5,6.2-4.9,12.5-7.7,18.5c51.4,52,104.2,103.3,155.8,154.8
			c0.8,0.8,1.8,2.1,2.4,1.7c4.9-7.2,9.4-14.7,14.2-22.1C474.7,159.8,420.2,108.4,365.1,57.7z M188.7,64.4c-0.7,2.1-0.4,5.4,1.9,6.2
			c0-7.4,7.7-11.7,14.6-8.4C203,54.4,190.5,59.2,188.7,64.4z M245.8,69.2c2.2,3,4.6,5.8,7.2,8.4c0.8-3.4,2.4-6.1,3.4-9.4
			c-2.2-2.9-4.5-5.7-7-8.4C248.3,63,247.2,66.2,245.8,69.2z M200.2,63.2c-3.8,0.1-7.6,3.2-7.2,7.4c0.3,3.2,3.3,4.7,4.8,7.2
			c0.8-0.4,2.2-0.2,3.1-0.5c1.6-3,4.7-4.6,8.9-5C207.2,69.7,205.6,63.1,200.2,63.2z M350,83.1c0.2-0.6,1.1-0.5,1.9-0.5
			c4.8,4,8.7,8.9,13.2,13.2c2.7,0,5,2,7.4,0.7c-4.2-4.8-9.8-10-14.6-14.9c-1.3-1.3-4.5-3.6-4.6-5.3c-0.1-1.9,2-4.3,2.9-6.5
			c0.4-1.1,0.8-2.5,1.2-3.6c0.3-0.7,1.9-2.7,0-2.9C355,68.9,352,77.2,350,83.1z M160.2,128.2c1.6,1.9,2.9,4,4.6,5.8
			c7.2-19.7,15-38.9,22.3-58.6c-1.8-2.5-3.9-4.8-6-7C174.2,88.6,167,108.2,160.2,128.2z M262.9,87.9c0.3,0,0.6-0.1,0.2-0.2
			c-1.9-3.5-3.9-6.9-5.5-10.6c2.2,0,4.3,0,5.8-0.7c-2.4-2-3.7-5.1-6.2-7c-0.9,2.9-2,5.6-3.1,8.2c0.6,0,1.1,0,1.7,0
			C257.8,81.3,259.5,85.4,262.9,87.9z M243,78.6c2.8-0.4,6-0.2,8.4-1c-2.5-1.8-3.7-4.8-6.2-6.5C244.6,73.7,242.7,76,243,78.6z
			 M202.6,76.6c0.6,2,0.5,4.6,1,6.7c2.1-2.5,3.9-5.4,7.9-6c0.1-1.2-0.3-2.8,0.5-3.4C208.2,72.6,204.9,75,202.6,76.6z M190.2,78.8
			c1.7-0.2,2.4-1.5,3.1-2.6C192.2,76,191.1,78,190.2,78.8z M193,78.6c0.6-0.1,1.1-0.3,1.9-0.2c0-0.6-0.3-0.9-1-1
			C193.8,77.9,193.2,78,193,78.6z M261.2,79.5c1.7,1.7,2,4.6,3.6,6.5c2.4,2.8,7.7,4.5,10.1,7.2c1.7,1.9,2.3,5.2,4.1,7.4
			c2.9,3.6,7.8,5.7,10.3,9.1c2.3,3.1,3.2,7.2,5.5,10.3c2.1,2.9,5.5,4.5,7.7,7.4c2.3,3,3.3,6.2,5.8,9.1c0.4-3.7,3.7-6.6,3.4-9.8
			c-0.2-1.9-3-3.7-4.3-5c-1.9-1.8-3.4-3.3-5-4.6c-1.5-4.1-4-7.2-5.5-11.3c-1.9-1.2-3.4-2.9-5-4.3c-1.6-1.4-3.7-2.6-5.3-4.3
			c-2.2-2.4-3.2-6-5.5-8.2c-2-1.8-4.8-2.4-6.7-4.3c-1.2-2-2.4-4.2-3.6-6.2C267.3,78.7,263.9,78.8,261.2,79.5z M192.6,81
			c1.3,1.9,6.6,0.4,8.2-0.5c0-0.2,0-0.5,0-0.7C197.9,80,195.5,80.8,192.6,81z M205.8,88.9c0.3,1.8,1.6,3.2,3.1,4.3
			c2.5-3.7,5.3-7.2,11-7.7C218.3,76.4,203.9,79,205.8,88.9z M245.1,80.7c2,2.5,2.8,6.3,5,8.6c2.6,2.8,7.5,4.8,9.8,7.4
			c2.2,2.4,3.1,5.9,5,8.4c3.1,3.9,7.4,5.6,10.6,9.4c2.5,3.3,3.1,7.1,5.5,10.3c2.3,3.1,6,4.9,8.2,7.9c3.5,4.9,5.4,10.8,10.3,14.6
			c1.6-0.2,3-0.5,4.8-0.5c0.1-1.5,1-2.2,1.2-3.6c-4.1-3.7-5.2-9.2-8.4-13.4c-2.4-3.1-6.2-5.1-8.6-8.4c-2.1-2.9-3.2-6-5-9.4
			c-3-3.4-7.2-5.1-10.1-8.9c-1.8-2.4-2.6-5.7-4.6-7.9c-2.7-3-7.3-4.6-10.1-7.9c-1.9-2.4-2.6-4.9-4.6-7.4
			C250.8,79.8,248.5,80.8,245.1,80.7z M187.3,82.4c0.2-0.5,1.4-1.2,0.7-1.7C187.7,81.1,186.8,82.1,187.3,82.4z M288.3,144.1
			c-1.8-2.6-2.5-6.1-4.6-8.9c-2.4-3.3-6.6-4.9-8.9-8.2c-2-2.9-2.9-6.4-4.6-9.6c-2.9-3.2-6.9-5.1-10.3-8.9c-2.6-2.9-3.7-6.9-6.2-9.8
			c-3.2-3.6-8.4-5.1-10.8-8.4c-1.4-1.9-2.7-8.2-5-8.9c-2.7-0.8-6.5,1.7-9.1,1c1.7,4.1,4.3,7.2,6,11.3c3.9,2.4,7.3,5.2,11,7.7
			c2,4.1,4.7,7.5,6.7,11.5c3,2.2,5.7,4.7,8.4,7.2c2.2,3.1,3,7,5.3,10.1c2.2,3,5.9,4.9,8.2,7.9c4,5.3,6.2,11.9,11.8,15.6
			c0.7-1.8,0.9-4.1,2.2-5.3c1-0.3,2.3-0.3,3.6-0.2C291,146.4,289.4,145.6,288.3,144.1z M171,132.3c-0.8,2.1-2.8,5.8-2.6,7.2
			c0.2,2.2,3.5,3.9,4.3,5.8c7.9-18.7,15.8-37.3,23.5-56.2c-1.7-2.6-3.9-4.8-6-7C184.4,97,177,116.2,171,132.3z M247.8,90.8
			c-0.5-3.4-3.5-6.3-5.8-8.6C243.2,85.8,244.4,89.4,247.8,90.8z M194.5,83.1c-0.5,0.6,1.3,1,1.2,1.9c1.7-0.4,4.2-0.1,5.5-1
			c-0.5-0.1-0.1-1.2-0.2-1.7C198.6,82.4,196.6,82.8,194.5,83.1z M184.6,89.4c1-1.1,1.8-3.6,1.9-4.8
			C185.6,85.7,184.7,88.1,184.6,89.4z M196.9,86.5c0.8,0.5,1.3,1.3,1.9,1.9c0.7-0.3,1.8-0.2,2.9-0.2c-0.1-0.9-0.2-1.9-0.5-2.6
			C199.7,85.8,198,85.8,196.9,86.5z M226.4,91.3c1.2-0.5,3.2-0.1,4.3-0.7c-1.2-1.1-1.5-3.2-2.9-4.1
			C227.6,88.2,226.4,90.2,226.4,91.3z M231.2,104c-0.2,0-0.3,0-0.5,0c-2.9,0.3-6.5,1.1-9.1,1c-0.3-1-0.9-1.7-1.2-2.6
			c1.7-4.8,3.5-9.5,5-14.4c-10.8-1.9-17.6,6.3-16.6,16.3c2.9,3.9,5.3,8.4,7.7,12.2c0.8,1.3,1.8,2.8,3.1,3.6
			C219.5,111.7,224.9,106.8,231.2,104z M352.2,87.9c-0.1-0.3-0.3-0.1-0.5,0c-2.4,6.5-5,12.8-7.4,19.2c49.7,54.1,99.5,108,149.3,162
			c4.5-8,9.6-15.4,13.9-23.5C455.4,193.3,404.2,140.2,352.2,87.9z M198.6,89.6c-0.1,1.1-0.6,1.8-1,2.6c1.3-0.3,3-0.2,4.3-0.5
			c0.1-1-0.2-1.6-0.2-2.4C200.5,89.3,199.5,89.4,198.6,89.6z M253.5,95.1c-1.6-1.3-2.7-3-4.8-3.8C249.7,93,252.1,94.6,253.5,95.1z
			 M232.2,93.4c-0.4-2.2-3.8-1-6.5-1c-0.4,1.6-1.1,2.9-1.4,4.6c2.6,0.1,4.5-0.5,7-0.5C231.4,95.1,232.4,94.5,232.2,93.4z
			 M197.1,93.4c-0.4,0.9-0.6,1.9-1.2,2.6c2.3-0.1,4.4-0.4,6.5-0.7c-0.1-0.8-0.4-1.4-0.2-2.4C200.5,93.1,198.8,93.3,197.1,93.4z
			 M232.6,96.3c0.5,0,1,0,1.4,0c0-0.9-1-0.8-1.2-1.4C233.1,95.6,232.5,95.6,232.6,96.3z M195.4,97.5c-0.4,0.7-0.7,1.4-1,2.2
			c2.7-0.3,5.4-0.7,8.2-1c0-0.7,0-1.4,0-2.2C200.2,96.9,197.7,97,195.4,97.5z M230.5,102.3c1-0.5,2.4-0.5,3.8-0.5
			c-0.2-1.1-1.1-1.4-1.4-2.4c0.2-0.7,0.8-1,0.7-1.9C230.8,97.2,230.8,101,230.5,102.3z M235.5,99.4c1,1.5,2.4,2.7,3.1,4.6
			c-0.4,1.3-1,2.3-1.2,3.8c0.8,1.1,1.4,2.4,2.6,3.1c0.8-3.1,2.3-5.5,3.1-8.6c-2.5-1.5-4.5-3.5-7.2-4.8
			C236.3,98.6,235.3,98.5,235.5,99.4z M223.8,98.2c-0.6,1.4-1.7,3.1-1.2,4.8c1.7,0.3,4-0.7,6.5-0.5c0.4-1.7,1.1-3.2,1.7-4.8
			C228.1,97.6,226.4,98.4,223.8,98.2z M371.4,100.9c-1.4,3.8,2.4,4.9,4.1,7c0.2-2.8,1.6-6.8,1-8.9C375,99.8,372.9,100.1,371.4,100.9
			z M193.8,101.1c-0.1,0.8-0.6,1.2-0.5,2.2c2.9,0.2,6.7-0.7,9.8-1c0.2-1.1-0.3-1.4-0.2-2.4C199.7,100.2,196.7,100.6,193.8,101.1z
			 M369.9,102.3c-0.1-0.8,0.4-0.8,0.2-1.7c-0.8,0.1-2-0.7-2.4-0.2C368.6,100.9,369.1,101.8,369.9,102.3z M376.6,108.6
			c1.7,0.2,2.8,1,4.8,1c0.4-1.6,0.7-3.3,1.2-4.8c-1.9-1.2-3.1-3-4.8-4.3C377.6,103.3,376.9,105.7,376.6,108.6z M341.1,103.8
			c0.4,0.5,0.6,1.1,1.4,1.2c0.4-1.4,1.1-2.5,1.4-3.8c-1,0.2-1-0.6-1.9-0.5C341.9,101.8,341.4,102.7,341.1,103.8z M490.9,268.9
			c-12-12.3-23.4-25.6-34.8-37.9c-26.9-29.1-52.6-57.2-79.7-86.4c-11.3-12.2-23.1-25.3-34.8-37.7c-2-2.1-3.9-5-5.5-5.3
			c-2.2,1.9,1.5,4.9,3.4,7c11.7,12.7,23.6,25.4,34.6,37.7c13,14.6,27,28.5,39.6,42.7c26.2,29.4,53,57.8,79,85.7
			C495.1,272,492.4,270.4,490.9,268.9z M202.9,103.5c-3,0.5-6.2,0.8-9.4,1.2c-0.1,1,0.2,1.6,0.2,2.4c3.4-0.3,6.7-0.6,9.8-1.2
			C203,105.4,203.9,103.6,202.9,103.5z M240.8,112.2c0.8,1,1.4,2.1,2.4,2.9c0.8-3,2.1-5.5,2.9-8.4c-0.8-0.8-0.9-2.4-2.2-2.9
			C243,106.7,241.7,109.3,240.8,112.2z M221.4,121c0.8-0.7,4-0.2,5.5-0.5c-1.2-5.9,4.3-9.3,9.4-10.6c-0.6-0.7-1.4-1.2-1.7-2.2
			c0.8-0.8,0.8-2.4,1.4-3.4C226.8,105.5,220.3,111.4,221.4,121z M383.1,109c0.6-0.7,2-0.5,2.4-1.4c-0.8-0.4-1.1-1.3-1.9-1.7
			C383.5,106.9,382.7,108.4,383.1,109z M203.4,107.1c-2.8,0.7-6.2,0.8-9.4,1.2c-0.1,1,0.2,1.6,0.2,2.4c3.4-0.2,6.7-0.5,9.6-1.2
			C203.6,108.8,204.4,107.1,203.4,107.1z M140.2,108.1c0.6,3.1,2.2,5.4,2.6,8.6c8.8,10.4,17.4,21.1,25.9,31.9c2.3,0.1,5.7,1.9,6-1.2
			c-0.9-0.5-0.7,1.8-2.2,1.4c-2.7-2.7-5.1-5.8-7.2-9.1c0.3-0.9,0.7-1.7,1-2.6c-0.7-0.5-1.2,1-2.2,0.2c-2.3-2.9-4.7-5.7-6.7-8.9
			c0.8-1.4,0.6-2-0.5-2.9c-0.1,0.7-0.5,1.2-1.4,1.2c-2.8-2.6-5-5.9-7.2-9.1c0.7-1.3,0.9-2.7-0.5-3.4c-0.3,0.6-0.4,1.3-1.4,1.2
			c-2.4-2.2-3.5-5.6-5.5-8.2C140.8,107.7,140.6,107.9,140.2,108.1z M208.4,121.3c0.2,1.6-0.2,4.7,1,5.3c1.9-2.6,2.4-6.5,3.8-9.6
			c-2.2-3-4-6.4-6.2-9.4C207.3,111.7,208,116.9,208.4,121.3z M263.8,108.6c0-0.3,0-0.6,0-1c-0.3,0.1-1.2-0.3-1.2,0.2
			C263.5,107.7,262.9,108.8,263.8,108.6z M246.1,113.6c0.9-0.6,3.2,0.1,4.1-0.5c-1.1-0.9-1.3-2.9-2.6-3.6
			C247.3,111.1,246.6,112.3,246.1,113.6z M310.6,109.8c-1.1,2.9-1.8,6-3.1,8.6c0.7,1.3,1.8,2.4,3.1,3.1c1.3-4,2.8-7.8,4.1-11.8
			C313.4,109.8,312,109.8,310.6,109.8z M194.2,111.9c-0.2,1,0.4,1.2,0.2,2.2c3.5-0.2,6.6-0.8,9.8-1.2c0.1-0.8-0.1-1.3-0.2-1.9
			C200.6,111.1,197.8,111.9,194.2,111.9z M227.6,119.8c0.4,2.7,3.6,3.9,4.3,6.7c3,0.1,5.1-0.7,8.2-0.5c-1.5-2.9,3.1-6.9,1.4-9.1
			c0,0.4,0.1,0.9-0.2,1c-2.3-1.4-3.4-3.7-3.8-6.5C232.3,111.6,227,115.3,227.6,119.8z M273.9,233.6c5.9-0.3,11.8-0.7,17.5-1.2
			c14.2-38,28.6-75.9,43-113.8c-3.7,0.1-7.3,0.4-10.8,0.7c-1.1-2.4-2.7-4.2-4.1-6.2C304.3,153.3,289.2,193.5,273.9,233.6z
			 M183.2,128.7c2.6-0.1,4.6-0.7,7.4-0.5c-0.5-4.9-0.8-9.9-1.4-14.6C187.5,119,184.9,123.4,183.2,128.7z M334.4,132.3
			c47.3,55,94.7,109.8,142.1,164.6c4.4-7.3,9.1-14.4,13.2-22.1c-48.6-53.6-98.5-107.9-148.1-161.3
			C339.4,120,336.8,126.1,334.4,132.3z M194.7,115.3c0,0.9,0,1.8,0,2.6c3.3-0.5,6.5-1,10.1-1.2c-0.1-0.8-0.4-1.4-0.2-2.4
			C201,114.3,198.3,115.2,194.7,115.3z M245.6,114.8c-0.4,1.8-1.1,3.2-1.7,4.8c2.7,0.1,4.6-0.5,7.2-0.5c0.3-1.3,1.1-2.1,1.2-3.6
			C251.2,113.4,248.4,115.2,245.6,114.8z M252.6,118.9c1.1-0.2,2.9,0.3,3.6-0.2c-1.2-0.4-1.5-1.6-2.9-1.9
			C253.2,117.6,252.7,118,252.6,118.9z M195,119.1c-0.1,1,0.4,1.3,0.2,2.4c3.2-0.5,6.5-0.8,9.8-1.2c0-0.8,0-1.6,0-2.4
			C201.6,118.2,198.3,118.7,195,119.1z M214.4,123.9c2.3-0.2,5.1,0.1,6.5-1c-0.4-0.8-2-0.4-3.1-0.5c-0.7-0.8-1-2.1-1.9-2.6
			C215.5,121.3,214.8,122.4,214.4,123.9z M251.8,120.3c-0.3,1.5-0.9,2.7-1.4,4.1c1.9-0.4,4-0.5,6-0.7c0.4-1.2,1-2.2,1.4-3.4
			C256.5,119.3,254,120.6,251.8,120.3z M243.4,120.8c-0.2,1.7-1.6,3.1-1.2,4.6c2.4-0.3,4.8-0.5,7-1c0.3-1.6,1-2.7,1.4-4.1
			C248.2,120.4,246.1,120.9,243.4,120.8z M195.2,122.7c0.1,0.8,0.4,1.4,0.2,2.4c3.6-0.1,6.7-0.8,10.1-1.2c-0.1-1,0.3-2.4-0.7-2.4
			C201.8,122.1,198.4,122.4,195.2,122.7z M224.7,123.2c0.3-0.1,1.2,0.3,1.2-0.2c-1.2,0.3-3.7-0.5-3.8,0.2
			C222.6,123.8,224.2,123.4,224.7,123.2z M298.9,128.2c2.1,3.6,3.8,7.4,6.2,10.6c0.1-0.5,0.1-1,0.7-1c-2.9-5.7-6-11.2-11.5-14.4
			C294.8,125.2,297.3,126.9,298.9,128.2z M221.4,124.6c-0.2,1.1-0.8,1.8-1,2.9c2.9-0.6,7.8,0.8,7.7-2.9
			C226.5,123.6,223.8,125,221.4,124.6z M213.9,125.1c-0.1,1.1-0.7,1.9-1,2.9c2.2,0,3.9-0.4,6.2-0.2c0.1-1.2,0.8-1.9,1-3.1
			C218.2,124.9,216.2,125.2,213.9,125.1z M195.7,126.3c-0.1,1.1,0.1,1.8,0.2,2.6c3.6-0.1,6.6-0.8,10.1-1c-0.2-1,0.1-2.5-0.7-2.9
			C202.3,125.7,199.1,126.1,195.7,126.3z M281.1,128c-1-0.8-2-1.5-2.4-2.9c-0.7,0-1.4,0-2.2,0C277.3,126.7,279.1,128.5,281.1,128z
			 M149.6,141.9c-4.3-5.4-8.3-11.2-13-16.3c-0.7,0.4-1.8,0.3-2.4,0.7c1.8,3.8,4.9,6.8,7.4,10.1c7.8,10,15.4,19.8,23,29.8
			c3.5-2-0.2-5.3-1.7-7.2c-3.2-4.1-7.3-9-9.8-12.5C150.4,147.4,148.7,144.6,149.6,141.9z M255.2,127.8c0.2,0.8,0.5,1.6,1,2.2
			c2.4-0.8,5.9,0.4,7.7,0.2c-1-1.3-1.6-2.9-2.4-4.3C258.2,125.3,256.9,126.7,255.2,127.8z M244.6,127.8c1.1,2.5,1.4,6.6,0.7,8.9
			c2.1-3,5-5.1,8.9-6.2C253.6,126.4,248.3,126.3,244.6,127.8z M240.1,128.2c-0.3,0-0.4,0.2-0.7,0.2c-17.6,1.2-40.6,3.1-59,4.3
			c-1.1,3.3-2.6,6.2-3.8,9.4c21.8-2.2,44.2-3.8,66.2-5.8C244.1,133.1,243.5,128.7,240.1,128.2z M284.5,132.6
			c-0.9-0.6-1.9-2.5-2.9-2.2C282.8,130.7,283.6,132.7,284.5,132.6z M116.5,173.6c-0.9,1.9-2.6,4.8-2.6,6c-0.1,2.5,2.2,4.9,2.4,7.2
			c7.4-17.1,15-34.1,22.6-51.1c-1.2-1-1.8-2.7-3.1-3.6C130,144.2,122.6,160.5,116.5,173.6z M265.5,133.5c-2.8-2.1-8.5-2-12-0.7
			c-6,2.3-11.7,11-8.6,17.5c2.2,2.9,4.6,5.7,6.5,8.9c5.4,0.2,5.8,2.9,8.4,6c2.4,3,3.4,5.5,8.2,5c0.2-6.6,4.3-10.5,10.8-10.1
			c0-4.4-1.8-7-3.8-9.4c-2.7-1-8.6,1.1-9.8-1.4c1-1.5,3.4-1.8,4.3-3.4c-0.5-1.6-2.3-3.2-2.2-4.8c0.6-0.6,1.7-0.7,2.9-0.7
			C268.2,138.2,267.6,135.1,265.5,133.5z M166.9,135.2c0.7,0.2,1-1.2,0.5-1.4C167.2,134.3,166.2,134.6,166.9,135.2z M151.5,144.8
			c2.9-0.8,6.6-9.1,3.1-10.8C153.4,137.2,150.7,140.3,151.5,144.8z M288.6,138.6c-0.7-0.9-1.3-3-1.9-2.4c2.5,4.1,4.9,9.5,8.9,11.3
			C293.4,144.7,290.6,141.3,288.6,138.6z M157.3,140.2c1.6,1.1,1.8,3.9,4.8,2.9c-1.3-2-2.7-4-4.6-5.5
			C157.7,138.7,157.2,139.3,157.3,140.2z M340.9,150.6c0.9-0.9,2.1-3.2,1.9-4.6c-0.2-1-2.1-2.7-3.1-3.8c-0.9-1-2.3-3.1-3.6-3.6
			c-1.8-0.6-4.5-0.2-6.5,0c-1.1,1.8-1.8,3.9-2.4,6.2c2.9,0.4,5.3-1,7.7-0.2c-1,3.1-2.5,5.8-3.4,9.1
			C335.1,153.7,338.9,152.6,340.9,150.6z M230.2,139.8c0.7,1.4,1.9,2.2,2.9,3.4c0.5-1.1,0.8-2.4,1.2-3.6
			C232.8,139.4,231.9,139.9,230.2,139.8z M219.2,140.7c0.2,0.7-0.3,0.6-0.2,1.2c2.1,1.5,4.2,4.9,6.5,7c0.9-3.1,2.1-5.9,3.1-8.9
			C225.2,140,222.5,140.7,219.2,140.7z M236.5,140.2c-0.2,1.8-1.1,2.9-1.4,4.6c2-0.3,4.1-0.5,6.5-0.5c0.3-1.6,0.9-2.9,1.4-4.3
			C240.5,139.8,238.8,140.3,236.5,140.2z M122.7,189.7c-0.9,2.3-3,5.3-2.9,7c0.1,2.3,2.6,4.3,3.1,6.2c7.5-19.4,15.9-37.9,23.3-57.4
			c-1.1-1.7-2.4-3.2-3.6-4.8C136.5,155.3,129.2,173.9,122.7,189.7z M226.2,149.6c0.9,1.6,2.1,2.9,3.4,4.1c1.2-4.4,5-10.1-0.2-12.5
			C228.3,144.1,227.4,147,226.2,149.6z M177.2,145c0.7,1,0.9,2.5,0.7,4.3c-2.5,2.8-6.5,3.9-10.6,1.7c-1.8-1-2.7-4.2-4.6-4.8
			c-1.1-0.3-2,0.3-2.9,0.2c-1.7-0.2-2.3-1.6-3.8-1.7c2.2,2.6,4.2,5.4,6.7,8.6c2.5,3.2,7,6.8,6.5,12.5c-1.4,1.3-3,2.5-4.3,3.8
			c-1.4,5.2-3,10.3-4.3,15.6c0.8,0.3,1.5,0.7,2.2,1.2c27.6,36.9,55.3,73.6,83.3,110.2c3.4-9.8,7.2-19.2,10.8-28.8
			c-2.3,0.2-5.5,0.8-7.4,0c-1.5-2.3-2.6-5.6-1.7-8.9c-4.6-4.8-8.8-9.9-12-16.1c-2.6-2.4-5.2-3.8-7.4-6.7c-2.1-2.8-2.9-6.8-5.3-9.6
			c-2-2.3-5.9-3.7-8.2-6.5c-2.4-2.9-4.1-8-6.5-10.6c-1.2-1.3-3.6-2.4-5.3-3.6c-1.8-1.2-4.1-2.2-5.3-3.6c-1.4-1.7-2.4-4.3-3.8-6.7
			c-0.6-1.1-3.9-5.1-3.6-7c0.4-2.4,3.2-1.9,6-2.2c4-0.4,8.2-1.6,10.3-0.2c2.9-2.3,9-1.4,13.7-1.9c1.1-0.2,1.1,0.7,1.7,1
			c2.7-2.9,9.5-1.7,14.4-2.4c2,1.8,3.2,4.5,4.6,7c1.9,1.4,4.5,2.1,6.2,3.6c2.3,2,3.4,5.5,5.8,7.9c2.8,2.9,6.9,4.9,9.4,7.7
			c4.2,4.6,4.9,12.2,11,15.1c2.2-6.3,4.8-12.3,7-18.7c-3.5,0.4-7.5,1.3-7.9-1.7c-0.2-1.4,1.2-4.9,1.9-7.2c0.8-2.6,2-5,1.9-7.2
			c-0.9-0.1-1.2-0.8-1.9-1.2c-3.2,9.6-15.4,1.8-13-7.4c-3.7-0.2-6.2,0.7-9.8,0.5c-0.2-0.4-1.3-0.7-1.7-1.7c-0.5-1.2-1.7-8.5-1.4-9.4
			c0.5-1.5,2-0.7,2.6-1.9c0.1-1.5-0.5-2.2-0.5-3.6c0.6-1,1.5-1.7,2.9-1.9c-3.9,0-5.4-2.4-7-4.8c-2.5,1.5-6.7,1.3-10.1,1.9
			c-1.4,3.9-2.9,8.2-4.3,12.2c-1.4,4-2.4,8.6-5.3,11.3c-3.9-2.6-6.8-6.7-10.1-10.8c-1.3-1.6-3-3.3-4.8-5.5c-1.2-1.4-4.2-4.7-4.3-6.2
			c-0.1-1.1,1.1-3.2,1.7-4.8c1.8-4.7,4.4-10.9,5.3-14.4C202.5,143.1,189.6,143.9,177.2,145z M269.4,142.2c0.7,1.3,1.5,2.5,2.2,3.8
			c1.6,0,3.2,0,4.8,0c-0.3-1.8-1.8-2.6-2.2-4.3C272.2,141.5,271.2,142.2,269.4,142.2z M214.6,153c2.4,2.2,4,5.3,6.7,7.2
			c0.8-3.7,2.5-6.5,3.4-10.1c-2.1-2.4-4.2-4.8-6.2-7.2C217.2,146.2,215.9,149.6,214.6,153z M234.6,146c-0.4,1.8-1.1,3.2-1.7,4.8
			c2.3,0,4.5-0.2,6.5-0.5c0.5-1.6,1-3.3,1.7-4.8C238.7,145.5,236.7,145.9,234.6,146z M240.6,150.3c0.6,0,1.1,0,1.7,0
			c0.1-1.5-0.3-2.4-0.7-3.4C241.6,148.5,240.5,148.8,240.6,150.3z M326,147.4c-1.7,4.5-3.4,8.9-5,13.4c1.4-0.5,3.9,0,5.3-0.5
			c0.9-2.1,1.8-4.6,2.6-7c0.9-2.3,2.3-4.7,2.2-6.5C329.6,147.4,327.4,147,326,147.4z M269.4,148.6c2.9-0.1,6.6,1.2,8.6-0.2
			c-0.3-0.2-0.4-0.5-0.5-1C275,147.1,270.3,146.6,269.4,148.6z M289.8,150.6c-1.5,4.4-4.2,8.2-1.7,13c3.5-0.2,6.8-0.6,10.3-0.7
			c0.6-2.2,1.6-4.5,2.4-6.7c0.8-2.2,2.2-4.6,1.9-6.5C298.4,149.9,294.6,150.8,289.8,150.6z M131.4,203.1c-0.8,2.4-2.8,6.2-2.6,7.7
			c0.2,2.3,3.6,3.8,4.8,5.5c6.7-20.3,13.6-40.5,20.6-60.5c-1.1-2.2-2.8-3.9-4.3-5.8C144.4,165.9,137.2,186.1,131.4,203.1z
			 M277.8,150.6c0.2,1,0.9,1.5,1.4,2.2c-0.1-1,0.6-1.2,0.5-2.2C279.1,150,278.6,150.7,277.8,150.6z M222.1,161.4
			c2.4,3,4.9,5.8,7.4,8.6c1-3.6,2.7-6.4,3.4-10.3c-1.1,0.1-2.3,0.5-3.1,0.2c-1.9-1-1.6-3-1-5c-1-1.2-2.1-2.4-3.1-3.6
			C224.5,154.6,223.1,157.8,222.1,161.4z M240.1,151.5c-0.6,1.6-1.3,3.2-1.7,5c1.8-0.2,3.8-0.4,5.5-0.7c0-1,1-1,0.7-2.2
			C243.5,152.3,242.9,150.7,240.1,151.5z M232.4,152.2c-0.5,1.8-1.3,3.3-1.7,5.3c2.6,0,4.5-0.6,6.7-1c-0.2-1.4,1-3.5,1.4-5
			C236.7,151.7,234.5,152,232.4,152.2z M339.2,153.4c-0.1-0.2-0.2-0.3-0.5-0.2c-1.8,1.4-4.7,1.7-7.9,1.7c-1,2.7-2,5.4-3.1,7.9
			c-2.5,0.4-5.6,0.1-7.9,0.7c-2.5,7.6-5.5,14.6-8.2,22.1c0.9,0.7,1.9,1.3,3.4,1.4c2.5-3.3,6.5-5,12.5-4.8
			C331.3,172.6,335.3,163.1,339.2,153.4z M345.2,159.9c1.4,1.4,2.3,3.5,3.1,5.5c2.6-1,4.5-2.7,5.5-5.3c-2.1-2.3-3.9-4.9-6.2-7
			C346.7,155.4,345.8,157.5,345.2,159.9z M341.8,153.7c-3.7,8.7-7.5,17.3-10.8,26.4c1.3,0.1,2-0.4,3.4-0.2c1-2.6,2.2-5.2,3.4-7.7
			c2.2-0.2,4.1-0.4,6,0.2c2.8-3.1,1.2-9.6-2.2-10.8c0.4-3,2-4.9,2.4-7.9C343.3,153.7,342.6,153.7,341.8,153.7z M211.8,160.9
			c0.3,2.7,5.5,6.1,6.5,7.9c0.5-2.7,1.7-4.7,2.4-7.2c-2.4-2.3-4-5.3-6.7-7.2C213.8,157.2,211.5,158.6,211.8,160.9z M283.5,159.9
			c-1-0.7-0.3-2.7,0-3.6c-0.5-0.7-1-1.2-1.7-1.7C281.3,156.4,281.8,160.4,283.5,159.9z M140,223.5c0.6,0.9,1.9,1.5,2.9,2.4
			c0.8,0.7,1.7,2.5,2.4,1.9c4.9-16.1,9.6-35.5,14.6-52.6c0.7-2.3,2.4-5.9,2.2-7.7c-0.3-2.2-3.3-3.9-4.3-5.8
			C152.1,182.7,145.7,202.7,140,223.5z M279.9,162.6c-11.4-3.4-13.1,16.5-1,14.4c-0.9-3,1.9-6,5.8-5.8
			C285.1,166.3,282.9,163.5,279.9,162.6z M351,168.1c0.3,1.3,1,2.6,2.4,2.2c0.5-0.5-0.3-0.7-0.2-1.4c1.7-1.8,3.4-3.7,4.8-5.8
			C354.9,162.2,354.8,168.1,351,168.1z M219,169.8c0.2,1.5,2.6,3.3,3.6,4.6c1.5,1.8,2.5,3.5,3.8,4.6c0.7-2.8,1.8-5.1,2.6-7.7
			c-2.8-2.6-4.8-5.9-7.7-8.4C221.1,165.6,218.7,167.4,219,169.8z M297.2,165.4c-0.1-0.2-0.2-0.3-0.5-0.2c-3.3,0.3-6.4,0.8-10.1,0.7
			c0.5,1.9,0.9,5.4,0,7.2c1.4,1.9,3.5,3.1,6.2,3.6C294.5,173.1,295.9,169.3,297.2,165.4z M254.5,166.6c0,1.8,0.6,3.1,0.7,4.8
			c2.3-0.2,4.7,0.7,6.7,0C259.5,169.6,259.3,165.4,254.5,166.6z M358.9,166.4c-0.6,1.2-2.5,1.8-1.7,3.6c1.9,0.2,3.1-0.4,4.3-1
			C360.5,168.3,360.3,166.8,358.9,166.4z M353.6,171.4c-0.2,5.4-0.5,10.8-0.7,16.3c0.3,0.9-0.7,0.6-0.7,1.2c1-0.2,0.6,1,1.4,1
			c-0.8-5.1,1.4-13.8,0.2-19.2C353.8,171,353.9,171.4,353.6,171.4z M362.7,177.9c0.4,0.9,1.5,1.1,1.7,2.2c-0.3,0.7-1,1.1-1,2.2
			c1,1.9,2.7,3.1,5.5,3.1c2.1,1.6,4.5,7.1,7.2,7.9c2.3,0.7,5.1,0.1,7.9,0.2c-6.4-7.1-12.4-14.7-19-21.6
			C364.6,174.2,363.3,175.7,362.7,177.9z M253.3,178.4c3.3-0.2,6.6-0.5,9.8-0.7c0-2-0.8-3.1-1-4.8c-3.3-0.3-6.7-0.4-10.1-0.5
			C252.3,174.6,253,176.2,253.3,178.4z M280.4,175.5c1.6,2.9,3.5,5.5,5.8,7.7c1.4-2,3.1-3.7,5-5c-3.1-0.8-5.2-2.5-6.5-5
			C282.3,172.9,281.1,174,280.4,175.5z M356.5,176.5c0.9-0.7,1.8-1.4,3.1-1.7c0-0.4,0-0.8,0-1.2
			C357.4,173.3,356.2,175.1,356.5,176.5z M337.8,179.6c0.9,0.4,2,0.6,2.9,1c0.8-1.7,1.3-3.6,2.2-5.3c-0.9-0.3-1.8-0.6-3.1-0.5
			C339.1,176.4,338.2,177.8,337.8,179.6z M347.4,174.8c-2.9,4.5-0.6,11.2,3.6,12.7c0.3-4.2,0.5-8.4,0.7-12.7
			C350.5,175.3,349.1,174.5,347.4,174.8z M355.8,178.2c-0.2,4.3-0.7,9.1-0.2,12.7c4.4,2.3,11.7,5,17.8,2.6c-1.5-2.4-3.6-4.2-5.3-6.5
			c-3.5-0.4-5.6-2.1-6.5-5c0.2-0.7,0.6-1.2,0.7-1.9c-1.2-1-2.3-2.2-3.6-3.1C358.6,178.3,356.7,178.4,355.8,178.2z M269.1,189.9
			c4.7-0.5,2.5-12.3-1.7-11.8C262.2,178.9,264.9,190.3,269.1,189.9z M280.9,182.2c-0.1-1-1.1-1.1-1.2-2.2c-0.5,0.1-1.6-0.3-1.7,0.2
			C279,180.9,279.4,182.1,280.9,182.2z M550.6,181.3c-5.4,8-10.4,16.5-15.8,24.5c0.1,1.2,1.4,1.2,1.7,2.2c-1.5,1.6-2.7,3.4-4.1,5
			c-0.7-0.1-0.6-1-1.4-1c-3.8,5.8-7.6,12.2-11.3,18c-1.2,1.8-3.5,3.8-2.6,6.2c3-0.1,4.4-4.1,6-6.7c9.9-15.8,20.5-31.9,29.8-47
			C552,182.2,551.8,181.3,550.6,181.3z M280.4,189.2c-0.9,4.9-2.5,9-3.6,13.7c1.7-0.5,4.4-0.1,6.5-0.2c-0.1-0.9,1-1.7,0.5-2.2
			c-1,0.2-2.7,0.7-3.6,0.2c0.7-4.2,2.5-7.2,3.4-11.3c1.9,0.1,3-0.5,4.8-0.5c0.5-0.9,0.7-2,1.2-2.9c-3.6-0.1-6.5,0.4-10.1,0.2
			c-2.3-1.2-2.9-4-6.2-4.1C274.5,185.7,278.4,186.4,280.4,189.2z M344.7,184.9c-0.1-0.8-0.6-1.3-1-1.9
			C343.1,183.8,344.2,184.5,344.7,184.9z M344,210.3c7.7-5.4,3.3-26-7-26.6c-3.1-0.2-5.3,1-9.4,1c3.4,3.9,9.9,14.3,6.7,23.3
			c-0.4,1.2-2.5,3.2-2.2,4.1C336.5,211,341.1,212.4,344,210.3z M324.6,185.6c-5.4-2.5-9.4,4.1-9.4,8.9c0,8.3,4.6,17.5,12,18
			C337,208.5,331,188.5,324.6,185.6z M265.5,222.1c-2.1-3-3-7-5.3-9.8c-2.6-3.2-7.4-5.2-10.3-8.6c-1.8-2.2-2.8-5.1-4.6-6.7
			c-2-1.9-5.2-2.4-7-4.3c-1.5-1.6-2-5-3.8-5.5c-2.3-0.7-6,1-7.9,0.7c2,6.6,8,9.2,13,12.7c2.5,7.2,8.6,10.7,13.9,15.1
			c2.1,3.2,2.8,6.9,5,9.6c3.1,3.9,8.4,5.8,10.1,11c2.4-0.4,3.4-4.3,4.6-6.7C271,226.5,267.8,225.3,265.5,222.1z M210.8,189
			c3,6.8,8.6,10.9,14.4,14.9c1.8,2.4,2.7,5.1,4.8,7.7c2.9,3.5,7.7,5.6,10.3,9.1c2,2.6,3.2,6.9,5,9.1c1.7,2.1,5.8,4.6,7.7,7
			c1.7,2.2,2.9,4.6,4.6,7.2c1.9,2.9,4.4,7.4,7.9,6c0.6-1.8,0.5-4.3,0.5-6.7c-2.5-2.6-3-6-5-8.6c-2.4-3.1-6.5-4.9-8.9-8.2
			c-1.9-2.7-2.6-5.5-4.6-8.4c-2.9-2.9-6.4-4.6-9.1-7.9c-1.8-2.2-2.8-5.2-4.8-7.4c-2.7-3-7.2-4.4-9.8-7.4c-1.7-1.9-2.4-4.8-4.1-6.7
			C216.3,188.3,214.1,189.1,210.8,189z M342.8,213.4c-4.2,1.1-9.2,0.4-14.4,1.4c-0.9,2.4-2.3,4.5-3.4,6.7c-1,2.2-2.8,4.9-2.9,7.2
			c-0.1,1.8,0.9,4.5,1.9,6.2c4.3,7.3,17.4,11.8,25.9,7c7.5-15.2,15.1-30.3,22.6-45.6c-11.2,2.2-19.2-4-25.2-7.7
			C351.9,196,351.8,211,342.8,213.4z M300.6,214.9c3,4.3,5.9,8.8,8.6,13c0.8,1.2,2,3.6,4.1,3.1c2-5,4.5-9.5,10.1-11
			c0.8-1.7,1.7-3.3,2.4-5c-8.3-1.6-12.3-10-13-18.7c-0.3-3.7,0.1-6-2.6-7.2C307.1,197.8,303.6,206.1,300.6,214.9z M252.1,247.3
			c-1.9-2.5-2.7-5.8-4.6-8.2c-2.5-3.1-6-4.3-8.4-7.4c-1.7-2.8-2.3-6.3-4.3-8.9c-2.3-3.1-6.9-4.7-9.6-7.7c-2.4-2.6-3.7-6.9-6.2-9.6
			c-3-3.2-8.3-5-10.6-8.2c-1.7-2.4-2.2-5.7-4.6-7.7c-2.6,0.6-6,0.4-8.6,1c0.8,1.9,1.9,3.3,2.9,5c1,1.6,1.6,3.9,2.9,5.3
			c2.8,3.1,8,4,10.8,7.4c2.7,3.3,3.3,6.4,6,10.1c3,1.8,5.2,4.4,8.2,6.2c1.3,3.7,3.7,6.2,5,9.8c8.5,4.9,11.7,16.3,19.2,21.4
			c0.6-1.5,1.1-3.2,1.7-4.8c1.1-0.1,2.2-0.3,3.6-0.2C254.7,249.4,253.1,248.6,252.1,247.3z M284.5,190.6c-0.9,3-2,5.8-2.9,8.9
			c1.1,0.1,2-0.1,2.9-0.2c1-3.1,2.4-5.9,3.4-9.1C286.9,190.5,285.4,190.3,284.5,190.6z M158.2,203.8c0.2,1.4,3.4,5,5,7.2
			c25.9,35.3,51.9,72.7,77.3,107c1.4-3.7,2.7-7.5,4.1-11.3c-0.2-1.5,0-3.1,1-4.6c-28.2-36.9-56-74.2-84.2-111.1
			C161.4,193.9,157.8,201.3,158.2,203.8z M156.3,205.5c26.7,37.3,54.5,75.3,80.9,112.6c0.7,0.9,2.1,3.5,2.4,2.9
			c0.2-1.5-1.2-2.6-1.9-3.6c-27.4-37.2-53.7-75.4-80.9-112.6c0-0.1,0-0.3-0.2-0.2C156.5,204.9,156.2,205,156.3,205.5z M153.9,219.7
			c26.5,39.1,52.4,78.6,79.2,117.4c1.8-4.6,4.1-8.7,5.5-13.7c-27.3-38.1-54.4-76.3-81.8-114.2C155.6,212.4,155,216.3,153.9,219.7z
			 M295.5,230.5c3.2-0.8,8,0,10.8-1.2c-2.3-3.1-4.4-6.5-6.7-9.6C298.1,223.2,296.8,226.8,295.5,230.5z M149.4,225.4
			c1.2-0.5,2-0.1,2.6,0.2c1.2,0.7,3.7,5.2,5,7.2c24.4,36.8,48.7,74.9,73,110.6c0.1-1.2,0.7-2,1-3.1c-26.8-39.8-53.5-79.7-80.4-119.3
			C150.1,222.5,149.8,224.1,149.4,225.4z M315.2,230.7c2.2-0.7,3.5,0.8,4.8,1.7c-1.9-4.8,1.7-7.8,2.4-11
			C319.1,223.6,315.7,225.7,315.2,230.7z M148.4,242.7c25,40.2,49.9,80.5,75.1,120.5c0.4-2,1.8-4.2,2.9-6.7c0.8-2,2.8-5.4,2.6-7.2
			c-0.1-1.5-3.4-5.2-4.8-7.2c-24.7-36.9-48.4-75.2-73-111.1C150.5,235.1,149.4,238.8,148.4,242.7z M380.2,250.9
			c1-8.1-2.2-17.9-7.2-19.2c-1.4-0.4-2.9,0.2-4.3,0.2c-3.4,0.2-7-0.1-11,0c-0.5,2.1-2.7,3.8-2.9,6.5c-0.1,1.5,0.6,3.2,0.7,5
			c0.3,4.7,0.1,9-1.2,12c1,1.8,2,3.6,3.6,4.8c5.6,0,11-0.4,16.6-0.5C377,257.7,379.7,255.3,380.2,250.9z M303.4,261.7
			c6.3-0.5,17,0.2,19.2-4.1c3.5-7,0-23.9-7-24.7c-2.5-0.3-6.2,0.5-9.1,0.7c-9.6,0.6-18.2,1.4-27.4,2.4c5.1,3.4,8.9,16.2,5.8,23.8
			c-0.6,1.5-2.1,2.8-1.9,3.8C289.5,263,295.8,262.3,303.4,261.7z M271.5,242.2c5.1-1.1,8.3,9.2,6.5,13.9c-2.1,5.2-8.4-0.3-8.6-4.3
			c1.6,6.1,3.9,11.7,10.8,12.5c8-6.3,4.7-25.9-4.1-28.8c-5.6,0.4-8.1,5.2-7.2,11.3C269.4,244.6,269.7,242.6,271.5,242.2z
			 M323.8,260.2c2.7,1.4,7.7,2.4,11.5,1.2c-6.3-5.6,6.6-16.3,13.2-10.6c0.4-1.7,1.2-3.8,0.7-5.8c-8,3.1-19.5,0.1-24.2-5
			C327,245.9,327.3,255.9,323.8,260.2z M351.4,243.7c1.2,2.5,0.3,6.7-1,8.4c0.7,1.2,1.8,2,3.1,2.6c0.7-4.1,1.3-10.6,0-14.6
			C353.1,241.5,352.5,242.8,351.4,243.7z M146.5,243.9c25.4,40.6,50.4,81.6,75.8,122.2c0.2-1.5-1-2.7-1.7-3.8
			c-24.8-39.7-49.5-79.7-74.2-119.3C146.5,243.3,146.5,243.6,146.5,243.9z M271.8,243.4c-1.5,0.4-1.8,3.5-1.7,5.3
			c0.3,3.7,1.9,8.3,5.8,8.2C279,253.3,276,242.3,271.8,243.4z M492.3,277.3c-0.6-0.1-0.8-1.3-1.4-0.7c-3.2,6-7.2,11.9-10.6,17.5
			c-1.1,1.8-3.1,4.1-2.2,6.5c2.5-1,3.5-3.9,4.8-6c9.7-15.7,19.1-31.5,28.3-47.3c-0.6-0.3-0.8-1.1-1.7-1.2c-5,8-9.9,16-14.6,24.2
			C497.6,272.8,493.7,275.3,492.3,277.3z M144.3,259.3c0.2,1.6,3,5.3,4.3,7.7c22.3,38,45.3,77.4,67.2,114.2
			c1.7-4.5,3.7-8.7,5.5-13.2c-24.9-39.9-49.5-80.1-74.4-120C147,250.9,144.1,257,144.3,259.3z M336.1,257.4c0.1,3.8,7.3,3.9,9.8,5.5
			c2.2,1.4,3,4.4,4.8,4.8c3.1,0.8,5.7-2.6,5.5-4.6c0-0.5-0.9-1.7-1.9-3.1c-1.9-2.7-3.5-3.8-6-5.8c-2.1-1.7-3.1-3-6-2.4
			C340.3,252.2,336,254.7,336.1,257.4z M253.5,253.3c-0.9,3.7-3.5,7.7-1.7,12c2.4-0.3,4.8-0.6,7.7-0.5c1.7-3.9,3.7-8.6,4.6-12.5
			C260.8,252.9,257.2,253.1,253.5,253.3z M247,304.9c2.6,1.3,3.5,5.2,6.5,5.5c2.6,0.3,6.1-2.3,8.9-1.9c5.6-13.8,10.8-28.1,16.1-42.2
			c-7.7-0.8-9.6-7.4-11.8-13.7C260.2,270.1,253.5,287.3,247,304.9z M321.9,262.2c-1.1,0.3-4,0.9-6.2,1c1.4,4.3,8.2,9.1,14.6,9.8
			c6.9,0.8,12.9-2,9.4-7.7C334.7,263.3,326.1,265.3,321.9,262.2z M310.9,263.6c-1.4,1.9-3.1,5.1-4.6,8.2c-2.5,5.1-5.6,10-2.4,15.6
			c2.8,5,12.8,10.6,20.2,9.4c4.9-0.8,7-8.7,8.9-12.5c1.8-3.6,4.3-7,5.3-11c-10.6,3.3-20.6-3-24-9.8
			C313.1,263.4,311.7,263.2,310.9,263.6z M314.5,305.6c-1.5,0.7-3.2,1.1-4.8,1.7c-0.6,2.8-1.6,5.3-2.2,8.2c1.5-0.5,3-1,4.6-1.4
			C312.5,311.1,315.1,307.9,314.5,305.6z M300.6,315c2.1,0.1,3.5,0.8,5.5,1c0.9-2.9,1.9-5.6,2.4-8.9c-1.9-0.3-3.9-0.6-5.8-1
			C302.3,309.2,300.6,312.3,300.6,315z M295.8,308.2c-0.4,3.1-1.5,5.6-2.2,8.4c2-0.5,3.5-1.5,5.5-1.9c0.7-2.7,1.5-5.2,2.2-7.9
			C299.2,307.1,297.9,308,295.8,308.2z M286.6,316.2c1.8,0.4,3.8,0.7,5.5,1.2c0.7-3.1,1.8-5.8,2.4-8.9c-1.8-0.3-3.7-0.6-5.5-1
			C288.2,310.4,287.4,313.2,286.6,316.2z M226.2,365.8c-0.9,2.5-3.1,6.7-2.9,8.4c0.1,1.1,1.7,2.2,2.2,3.4c0.7,1.7,0.6,3.1,1.2,4.6
			c0.6-0.2,1.5-0.3,2.4-0.2c-0.5-4.9,4.8-4.4,5.5-1c4.1-11.2,10.2-26.5,14.6-38.6c0.6-1.7,2.1-4.5,1.9-5.8c-0.1-1-1.8-1.8-1.9-3.4
			c-0.2-3,2.9-3.9,4.6-2.9c2.3-6.5,4.7-12.9,7.2-19.2c-2.9,0.6-5.7,1.2-8.4,1.9c-2-1.7-3.8-3.5-5.8-5.3
			C240.3,325.2,233.1,347.1,226.2,365.8z M282.1,309.2c-0.2,3.1-2.1,5.9-1.9,8.6c1.7-0.7,3.1-1.7,5.3-1.9c0.3-2.6,2.3-6,1.7-7.9
			C285.4,308.3,283.8,308.9,282.1,309.2z M276.1,308.2c-0.9,2.8-1.9,5.7-2.4,8.9c1.7,0.3,2.9,0.9,4.8,1c0.8-3,1.6-5.9,2.4-8.9
			C279.2,309,277.9,308.3,276.1,308.2z M269.4,310.2c-0.8,2.8-1.6,5.6-2.4,8.4c2-0.3,3.6-1.1,5.5-1.4c0.5-2.9,1.9-6.3,2.2-8.6
			C273.1,309.3,271.2,309.6,269.4,310.2z M263.1,310.6c-0.5,2.4-1.6,4.4-2.4,6.5c0.9,0.4,1.7,0.8,2.9,1c0.2-0.5,0.1-1.3,0.7-1.4
			c0.5,0.6,0.9,1.3,1.4,1.9c0.6-3.1,1.7-5.8,2.4-8.9c-1.1-0.3-2.1-0.6-3.1-1C264.5,309.5,264.6,310.8,263.1,310.6z M257.8,336.8
			c34.3,48.2,68.6,96.5,103.2,144.5c3.8-6.3,8-12.2,11.8-18.5c-36.1-47.1-71.9-94.7-108.2-141.6
			C262.4,326.5,259.9,331.4,257.8,336.8z M251.4,332.5c-0.5,2,4.2,7.4,6,9.8c7.1,9.9,14.1,19.6,20.6,28.8
			c26.2,37.1,52.6,73.4,78.7,110.4c0.7,1,2.5,4.9,3.6,3.8c1-1.1-1.5-4.1-2.2-5C322.7,430.6,287,381,251.8,331.8c0-0.1,0-0.3-0.2-0.2
			C251.6,331.9,251.5,332.1,251.4,332.5z M248.7,357.4c32.6,48.8,65,97.7,97.7,146.4c3.8-5.7,7.3-11.7,11.3-17.3
			c-33.9-48.3-68.2-96.3-102.5-144.2C253.2,347.5,250.6,352.2,248.7,357.4z M294.3,356.2c0.9,0.3,0.9,1.5,1.7,1.9
			c0.2-1.1,0.8-1.8,1-2.9C296,355.5,294.8,355.5,294.3,356.2z M243,364.6c1.4,0.7,1.2,3,2.9,3.4c0.8-2.4,1.5-4.9,2.2-7.4
			c-1-0.7-1.1-2.3-2.4-2.6C244.8,360.2,244,362.6,243,364.6z M247.3,368.7c1.5-0.7,3.6-0.9,5-1.7c-1.4-1.4-2-3.6-3.6-4.8
			C248.4,364.4,247.1,366.8,247.3,368.7z M237,385c30.4,50.1,60.7,100.3,91.2,150.2c3.5-6.2,7.5-12,11-18.2
			c-32.1-48.9-63.6-98.3-95.8-147.1C241.2,374.9,239,379.9,237,385z M236.7,391c30,49.2,59.1,98.2,88.8,146.9c0.5,0.8,1,2.2,1.4,1.7
			c1.8-1.6-0.6-3.7-1.2-4.8c-30.8-51.6-63.3-103.1-93.8-154.6c-0.3,0-0.3-0.3-0.7-0.2C231,382.7,234.7,387.8,236.7,391z
			 M231.2,398.5c-1,2.3-3,5.2-2.9,7c0.1,2.1,3.8,6.7,5.3,9.4c27.2,47.2,54,96.2,80.4,142.6c4-5.3,7.3-11.3,10.8-17
			c-30.1-49.8-60-99.9-90.5-149.3C233.4,393.1,232.5,395.5,231.2,398.5z M374.5,463.5c-3.1,5-6.6,10.6-9.8,15.6
			c-0.8,1.3-3.5,3.5-1.4,5c4.1-6.8,8.6-13.1,12.7-19.9C375.3,464.1,375.4,463.3,374.5,463.5z M359.4,489c0-0.6-0.4-0.8-0.7-1
			c-1.9,3.2-3.8,6.3-5.8,9.4c-1.9,3-4.6,5.7-5.5,9.6c2.3-0.8,3-3.5,4.3-5.5c2.8-4.3,5.6-8.3,8.2-12.5c0.2-0.4,1.6-1.5,0.7-1.7
			C360.4,488,360,488.6,359.4,489z M331.5,533.4c-0.8,1.3-3.4,3.3-1.4,4.8c3.8-6.7,8.4-12.6,11.8-19.7c-0.5,0-0.2-0.8-0.7-0.7
			C338,522.6,334.6,528.5,331.5,533.4z M320,551.6c-1.8,2.8-4.2,5.6-4.8,9.4c4.6-5.2,7.8-11.7,11.5-17.8c-0.4-0.2-0.4-0.9-1-1
			C323.9,545.6,321.9,548.5,320,551.6z"/>
	</g>
</g>
</svg>
